STARTFONT 2.1
FONT Untitled
SIZE 18 96 96
FONTBOUNDINGBOX 18 18 0 0
STARTPROPERTIES 2
FONT_ASCENT 18
FONT_DESCENT 0
ENDPROPERTIES
CHARS 76
COMMENT Conversion of file ../blue/normal/003_01.png
COMMENT Next glyph is color #0079e0
STARTCHAR 001
ENCODING 1
SWIDTH 1008
DWIDTH 18 0
BBX 18 18 0 0
BITMAP
ffffc0
ffffc0
c000c0
c000c0
cffcc0
cffcc0
c00cc0
c00cc0
cfccc0
cfccc0
c0ccc0
c0ccc0
ccccc0
ccccc0
c000c0
c000c0
ffffc0
ffffc0
ENDCHAR
COMMENT Conversion of file ../blue/normal/003_02.png
COMMENT Next glyph is color #0079e0
STARTCHAR 002
ENCODING 2
SWIDTH 1008
DWIDTH 18 0
BBX 18 18 0 0
BITMAP
000000
000000
ffffc0
ffffc0
c000c0
c000c0
cc0cc0
cc0cc0
c330c0
c330c0
c0c0c0
c0c0c0
c000c0
c000c0
ffffc0
ffffc0
000000
000000
ENDCHAR
COMMENT Conversion of file ../blue/normal/003_03.png
COMMENT Next glyph is color #0079e0
STARTCHAR 003
ENCODING 3
SWIDTH 1008
DWIDTH 18 0
BBX 18 18 0 0
BITMAP
0fc000
0fc000
303000
303000
c00c00
c00c00
c00c00
c00c00
c00c00
c00c00
303000
303000
0fcc00
0fcc00
000300
000300
0000c0
0000c0
ENDCHAR
COMMENT Conversion of file ../blue/normal/003_04.png
COMMENT Next glyph is color #0079e0
STARTCHAR 004
ENCODING 4
SWIDTH 1008
DWIDTH 18 0
BBX 18 18 0 0
BITMAP
03c000
03c000
0cc000
0cc000
30ffc0
30ffc0
c000c0
c000c0
00ffc0
00ffc0
0000c0
0000c0
00ffc0
00ffc0
c000c0
c000c0
3fffc0
3fffc0
ENDCHAR
COMMENT Conversion of file ../blue/normal/003_05.png
COMMENT Next glyph is color #0079e0
STARTCHAR 005
ENCODING 5
SWIDTH 1008
DWIDTH 18 0
BBX 18 18 0 0
BITMAP
ffff00
ffff00
c000c0
c000c0
ffc000
ffc000
c00000
c00000
ffc000
ffc000
c000c0
c000c0
ffc300
ffc300
00cc00
00cc00
00f000
00f000
ENDCHAR
COMMENT Conversion of file ../blue/normal/003_06.png
COMMENT Next glyph is color #0079e0
STARTCHAR 006
ENCODING 6
SWIDTH 1008
DWIDTH 18 0
BBX 18 18 0 0
BITMAP
3f3f00
3f3f00
c0c0c0
c0c0c0
c000c0
c000c0
c000c0
c000c0
c000c0
c000c0
300300
300300
0c0c00
0c0c00
033000
033000
00c000
00c000
ENDCHAR
COMMENT Conversion of file ../blue/normal/003_07.png
COMMENT Next glyph is color #0079e0
STARTCHAR 007
ENCODING 7
SWIDTH 1008
DWIDTH 18 0
BBX 18 18 0 0
BITMAP
3f3f00
3f3f00
c0c0c0
c0c0c0
0000c0
0000c0
3000c0
3000c0
fc00c0
fc00c0
300300
300300
000c00
000c00
033000
033000
00c000
00c000
ENDCHAR
COMMENT Conversion of file ../blue/normal/003_08.png
COMMENT Next glyph is color #0079e0
STARTCHAR 008
ENCODING 8
SWIDTH 1008
DWIDTH 18 0
BBX 18 18 0 0
BITMAP
00c300
00c300
033300
033300
0c0c00
0c0c00
300300
300300
c000c0
c000c0
33f300
33f300
333300
333300
333300
333300
3fff00
3fff00
ENDCHAR
COMMENT Conversion of file ../blue/normal/003_09.png
COMMENT Next glyph is color #0079e0
STARTCHAR 009
ENCODING 9
SWIDTH 1008
DWIDTH 18 0
BBX 18 18 0 0
BITMAP
c00000
c00000
300000
300000
0fffc0
0fffc0
0cccc0
0cccc0
0cccc0
0cccc0
0fff00
0fff00
000000
000000
3c03c0
3c03c0
3c03c0
3c03c0
ENDCHAR
COMMENT Conversion of file ../blue/normal/003_10.png
COMMENT Next glyph is color #0079e0
STARTCHAR 010
ENCODING 10
SWIDTH 1008
DWIDTH 18 0
BBX 18 18 0 0
BITMAP
c03000
c03000
30fc00
30fc00
0c30c0
0c30c0
0c00c0
0c00c0
0cccc0
0cccc0
0fff00
0fff00
000000
000000
3c03c0
3c03c0
3c03c0
3c03c0
ENDCHAR
COMMENT Conversion of file ../blue/normal/003_11.png
COMMENT Next glyph is color #0079e0
STARTCHAR 011
ENCODING 11
SWIDTH 1008
DWIDTH 18 0
BBX 18 18 0 0
BITMAP
3fff00
3fff00
300300
300300
300300
300300
300300
300300
3fff00
3fff00
00c000
00c000
0fc000
0fc000
00c000
00c000
0fc000
0fc000
ENDCHAR
COMMENT Conversion of file ../blue/normal/003_12.png
COMMENT Next glyph is color #0079e0
STARTCHAR 012
ENCODING 12
SWIDTH 1008
DWIDTH 18 0
BBX 18 18 0 0
BITMAP
0ffc00
0ffc00
300300
300300
300300
300300
ffffc0
ffffc0
c000c0
c000c0
c0c0c0
c0c0c0
c0c0c0
c0c0c0
c000c0
c000c0
ffffc0
ffffc0
ENDCHAR
COMMENT Conversion of file ../blue/normal/003_13.png
COMMENT Next glyph is color #0079e0
STARTCHAR 013
ENCODING 13
SWIDTH 1008
DWIDTH 18 0
BBX 18 18 0 0
BITMAP
03f000
03f000
0c0c00
0c0c00
0c0c00
0c0c00
0c0c00
0c0c00
03f000
03f000
0c0c00
0c0c00
300300
300300
c000c0
c000c0
ffffc0
ffffc0
ENDCHAR
COMMENT Conversion of file ../blue/normal/003_14.png
COMMENT Next glyph is color #0079e0
STARTCHAR 014
ENCODING 14
SWIDTH 1008
DWIDTH 18 0
BBX 18 18 0 0
BITMAP
003fc0
003fc0
00c0c0
00c0c0
0300c0
0300c0
0c30c0
0c30c0
300300
300300
c00c00
c00c00
303000
303000
0cc000
0cc000
030000
030000
ENDCHAR
COMMENT Conversion of file ../blue/normal/003_15.png
COMMENT Next glyph is color #0079e0
STARTCHAR 015
ENCODING 15
SWIDTH 1008
DWIDTH 18 0
BBX 18 18 0 0
BITMAP
03f000
03f000
ff3fc0
ff3fc0
c000c0
c000c0
ffffc0
ffffc0
300300
300300
333300
333300
333300
333300
300300
300300
3fff00
3fff00
ENDCHAR
COMMENT Conversion of file ../blue/normal/003_16.png
COMMENT Next glyph is color #0079e0
STARTCHAR 016
ENCODING 16
SWIDTH 1008
DWIDTH 18 0
BBX 18 18 0 0
BITMAP
000000
000000
000000
000000
000000
000000
0000c0
0000c0
000300
000300
c00c00
c00c00
303000
303000
0cc000
0cc000
030000
030000
ENDCHAR
COMMENT Conversion of file ../blue/normal/003_17.png
COMMENT Next glyph is color #0079e0
STARTCHAR 017
ENCODING 17
SWIDTH 1008
DWIDTH 18 0
BBX 18 18 0 0
BITMAP
03f0c0
03f0c0
0c0cc0
0c0cc0
3003c0
3003c0
c03fc0
c03fc0
c00000
c00000
c000c0
c000c0
300300
300300
0c0c00
0c0c00
03f000
03f000
ENDCHAR
COMMENT Conversion of file ../blue/normal/003_18.png
COMMENT Next glyph is color #0079e0
STARTCHAR 018
ENCODING 18
SWIDTH 1008
DWIDTH 18 0
BBX 18 18 0 0
BITMAP
333300
333300
ccccc0
ccccc0
c000c0
c000c0
c000c0
c000c0
ccccc0
ccccc0
c000c0
c000c0
ccccc0
ccccc0
c000c0
c000c0
ffffc0
ffffc0
ENDCHAR
COMMENT Conversion of file ../blue/normal/003_19.png
COMMENT Next glyph is color #0079e0
STARTCHAR 019
ENCODING 19
SWIDTH 1008
DWIDTH 18 0
BBX 18 18 0 0
BITMAP
000f00
000f00
0030c0
0030c0
00ccc0
00ccc0
030300
030300
0c0c00
0c0c00
303000
303000
c0c000
c0c000
c30000
c30000
fc0000
fc0000
ENDCHAR
COMMENT Conversion of file ../blue/normal/003_20.png
COMMENT Next glyph is color #0079e0
STARTCHAR 020
ENCODING 20
SWIDTH 1008
DWIDTH 18 0
BBX 18 18 0 0
BITMAP
03f000
03f000
0c0c00
0c0c00
300300
300300
c000c0
c000c0
cffcc0
cffcc0
c000c0
c000c0
300300
300300
0c0c00
0c0c00
03f000
03f000
ENDCHAR
COMMENT Conversion of file ../blue/normal/003_21.png
COMMENT Next glyph is color #0079e0
STARTCHAR 021
ENCODING 21
SWIDTH 1008
DWIDTH 18 0
BBX 18 18 0 0
BITMAP
ffffc0
ffffc0
c000c0
c000c0
c0c0c0
c0c0c0
c0c0c0
c0c0c0
c0c0c0
c0c0c0
c000c0
c000c0
c0c0c0
c0c0c0
c000c0
c000c0
ffffc0
ffffc0
ENDCHAR
COMMENT Conversion of file ../blue/normal/003_22.png
COMMENT Next glyph is color #0079e0
STARTCHAR 022
ENCODING 22
SWIDTH 1008
DWIDTH 18 0
BBX 18 18 0 0
BITMAP
00c000
00c000
033000
033000
033000
033000
0ccc00
0ccc00
0ccc00
0ccc00
300300
300300
30c300
30c300
c000c0
c000c0
ffffc0
ffffc0
ENDCHAR
COMMENT Conversion of file ../blue/normal/003_23.png
COMMENT Next glyph is color #0079e0
STARTCHAR 023
ENCODING 23
SWIDTH 1008
DWIDTH 18 0
BBX 18 18 0 0
BITMAP
00c000
00c000
00c000
00c000
00c000
00c000
30c300
30c300
0ccc00
0ccc00
03f000
03f000
00c000
00c000
000000
000000
3fff00
3fff00
ENDCHAR
COMMENT Conversion of file ../blue/normal/003_24.png
COMMENT Next glyph is color #0079e0
STARTCHAR 024
ENCODING 24
SWIDTH 1008
DWIDTH 18 0
BBX 18 18 0 0
BITMAP
ffffc0
ffffc0
c000c0
c000c0
c000c0
c000c0
c000c0
c000c0
c000c0
c000c0
c000c0
c000c0
ffffc0
ffffc0
00c000
00c000
0ffc00
0ffc00
ENDCHAR
COMMENT Conversion of file ../blue/normal/003_25.png
COMMENT Next glyph is color #0079e0
STARTCHAR 025
ENCODING 25
SWIDTH 1008
DWIDTH 18 0
BBX 18 18 0 0
BITMAP
fc0000
fc0000
cc0000
cc0000
ccffc0
ccffc0
ccc0c0
ccc0c0
ccc0c0
ccc0c0
ccc0c0
ccc0c0
ccffc0
ccffc0
cc0c00
cc0c00
fcffc0
fcffc0
ENDCHAR
COMMENT Conversion of file ../blue/normal/003_26.png
COMMENT Next glyph is color #0079e0
STARTCHAR 026
ENCODING 26
SWIDTH 1008
DWIDTH 18 0
BBX 18 18 0 0
BITMAP
ffffc0
ffffc0
c000c0
c000c0
cffcc0
cffcc0
c000c0
c000c0
ccccc0
ccccc0
c000c0
c000c0
ccccc0
ccccc0
c000c0
c000c0
ffffc0
ffffc0
ENDCHAR
COMMENT Conversion of file ../blue/normal/003_27.png
COMMENT Next glyph is color #0079e0
STARTCHAR 027
ENCODING 27
SWIDTH 1008
DWIDTH 18 0
BBX 18 18 0 0
BITMAP
000300
000300
3fff00
3fff00
300300
300300
33f300
33f300
333300
333300
33f300
33f300
300300
300300
300300
300300
3fff00
3fff00
ENDCHAR
COMMENT Conversion of file ../blue/normal/003_28.png
COMMENT Next glyph is color #0079e0
STARTCHAR 028
ENCODING 28
SWIDTH 1008
DWIDTH 18 0
BBX 18 18 0 0
BITMAP
3fff00
3fff00
300300
300300
300300
300300
300300
300300
300300
300300
300300
300300
30c300
30c300
300300
300300
3fff00
3fff00
ENDCHAR
COMMENT Conversion of file ../blue/normal/003_29.png
COMMENT Next glyph is color #0079e0
STARTCHAR 029
ENCODING 29
SWIDTH 1008
DWIDTH 18 0
BBX 18 18 0 0
BITMAP
03fc00
03fc00
0c0c00
0c0c00
0cfc00
0cfc00
0cc000
0cc000
0cc000
0cc000
0cc000
0cc000
0cfc00
0cfc00
0c0c00
0c0c00
03fc00
03fc00
ENDCHAR
COMMENT Conversion of file ../blue/normal/003_30.png
COMMENT Next glyph is color #0079e0
STARTCHAR 030
ENCODING 30
SWIDTH 1008
DWIDTH 18 0
BBX 18 18 0 0
BITMAP
3fff00
3fff00
c000c0
c000c0
cffcc0
cffcc0
cc0cc0
cc0cc0
fc0fc0
fc0fc0
00c000
00c000
c000c0
c000c0
ffffc0
ffffc0
000000
000000
ENDCHAR
COMMENT Conversion of file ../blue/normal/003_31.png
COMMENT Next glyph is color #0079e0
STARTCHAR 031
ENCODING 31
SWIDTH 1008
DWIDTH 18 0
BBX 18 18 0 0
BITMAP
3fff00
3fff00
c000c0
c000c0
c000c0
c000c0
c000c0
c000c0
c000c0
c000c0
3fc300
3fc300
003300
003300
000f00
000f00
000300
000300
ENDCHAR
COMMENT Conversion of file ../blue/normal/003_32.png
COMMENT Next glyph is color #0079e0
STARTCHAR 032
ENCODING 32
SWIDTH 1008
DWIDTH 18 0
BBX 18 18 0 0
BITMAP
ffffc0
ffffc0
c000c0
c000c0
c0c0c0
c0c0c0
0030c0
0030c0
fffcc0
fffcc0
0030c0
0030c0
c0c0c0
c0c0c0
c000c0
c000c0
ffffc0
ffffc0
ENDCHAR
COMMENT Conversion of file ../blue/normal/003_33.png
COMMENT Next glyph is color #0079e0
STARTCHAR 033
ENCODING 33
SWIDTH 1008
DWIDTH 18 0
BBX 18 18 0 0
BITMAP
ff0000
ff0000
030000
030000
030c00
030c00
000300
000300
ffffc0
ffffc0
000300
000300
030c00
030c00
030000
030000
ff0000
ff0000
ENDCHAR
COMMENT Conversion of file ../blue/normal/003_34.png
COMMENT Next glyph is color #0079e0
STARTCHAR 034
ENCODING 34
SWIDTH 1008
DWIDTH 18 0
BBX 18 18 0 0
BITMAP
00c000
00c000
033000
033000
00c000
00c000
0ffc00
0ffc00
30c300
30c300
333300
333300
033000
033000
033000
033000
033000
033000
ENDCHAR
COMMENT Conversion of file ../blue/normal/003_35.png
COMMENT Next glyph is color #0079e0
STARTCHAR 035
ENCODING 35
SWIDTH 1008
DWIDTH 18 0
BBX 18 18 0 0
BITMAP
00fc00
00fc00
030c00
030c00
0333c0
0333c0
030cc0
030cc0
0cc0c0
0cc0c0
303f00
303f00
c0c000
c0c000
c30000
c30000
fc0000
fc0000
ENDCHAR
COMMENT Conversion of file ../blue/normal/003_36.png
COMMENT Next glyph is color #0079e0
STARTCHAR 036
ENCODING 36
SWIDTH 1008
DWIDTH 18 0
BBX 18 18 0 0
BITMAP
03f000
03f000
0c0c00
0c0c00
30c300
30c300
c0c0c0
c0c0c0
c0c0c0
c0c0c0
c0c0c0
c0c0c0
30c300
30c300
0c0c00
0c0c00
03f000
03f000
ENDCHAR
COMMENT Conversion of file ../blue/normal/003_37.png
COMMENT Next glyph is color #0079e0
STARTCHAR 037
ENCODING 37
SWIDTH 1008
DWIDTH 18 0
BBX 18 18 0 0
BITMAP
00c000
00c000
0ccc00
0ccc00
30c300
30c300
c0c0c0
c0c0c0
c0c0c0
c0c0c0
c0c0c0
c0c0c0
300300
300300
0c0c00
0c0c00
03f000
03f000
ENDCHAR
COMMENT Conversion of file ../blue/normal/003_38.png
COMMENT Next glyph is color #0079e0
STARTCHAR 038
ENCODING 38
SWIDTH 1008
DWIDTH 18 0
BBX 18 18 0 0
BITMAP
ffffc0
ffffc0
c000c0
c000c0
c000c0
c000c0
c000c0
c000c0
ffffc0
ffffc0
c00000
c00000
c00000
c00000
c00000
c00000
c00000
c00000
ENDCHAR
COMMENT Conversion of file ../blue/normal/003_39.png
COMMENT Next glyph is color #0079e0
STARTCHAR 039
ENCODING 39
SWIDTH 1008
DWIDTH 18 0
BBX 18 18 0 0
BITMAP
03f000
03f000
033000
033000
033000
033000
ff3fc0
ff3fc0
c000c0
c000c0
ff3fc0
ff3fc0
033000
033000
033000
033000
03f000
03f000
ENDCHAR
COMMENT Conversion of file ../blue/normal/003_40.png
COMMENT Next glyph is color #0079e0
STARTCHAR 040
ENCODING 40
SWIDTH 1008
DWIDTH 18 0
BBX 18 18 0 0
BITMAP
000000
000000
000000
000000
000000
000000
ffffc0
ffffc0
c000c0
c000c0
ffffc0
ffffc0
000000
000000
000000
000000
000000
000000
ENDCHAR
COMMENT Conversion of file ../blue/normal/003_41.png
COMMENT Next glyph is color #0079e0
STARTCHAR 041
ENCODING 41
SWIDTH 1008
DWIDTH 18 0
BBX 18 18 0 0
BITMAP
ffffc0
ffffc0
c000c0
c000c0
c0c0c0
c0c0c0
c0c0c0
c0c0c0
cffcc0
cffcc0
c0c0c0
c0c0c0
c0c0c0
c0c0c0
c000c0
c000c0
ffffc0
ffffc0
ENDCHAR
COMMENT Conversion of file ../blue/normal/003_42.png
COMMENT Next glyph is color #0079e0
STARTCHAR 042
ENCODING 42
SWIDTH 1008
DWIDTH 18 0
BBX 18 18 0 0
BITMAP
ffffc0
ffffc0
c000c0
c000c0
c000c0
c000c0
c000c0
c000c0
cffcc0
cffcc0
c000c0
c000c0
c000c0
c000c0
c000c0
c000c0
ffffc0
ffffc0
ENDCHAR
COMMENT Conversion of file ../blue/normal/003_43.png
COMMENT Next glyph is color #0079e0
STARTCHAR 043
ENCODING 43
SWIDTH 1008
DWIDTH 18 0
BBX 18 18 0 0
BITMAP
ffc000
ffc000
c0c000
c0c000
c0ffc0
c0ffc0
c000c0
c000c0
c000c0
c000c0
c000c0
c000c0
c000c0
c000c0
c000c0
c000c0
ffffc0
ffffc0
ENDCHAR
COMMENT Conversion of file ../blue/normal/003_44.png
COMMENT Next glyph is color #0079e0
STARTCHAR 044
ENCODING 44
SWIDTH 1008
DWIDTH 18 0
BBX 18 18 0 0
BITMAP
f3ff00
f3ff00
f00000
f00000
000000
000000
f3ff00
f3ff00
f00000
f00000
000000
000000
f3ff00
f3ff00
f00000
f00000
000000
000000
ENDCHAR
COMMENT Conversion of file ../blue/normal/003_45.png
COMMENT Next glyph is color #0079e0
STARTCHAR 045
ENCODING 45
SWIDTH 1008
DWIDTH 18 0
BBX 18 18 0 0
BITMAP
3fff00
3fff00
300300
300300
3fff00
3fff00
0c0c00
0c0c00
0c0c00
0c0c00
ff3fc0
ff3fc0
c330c0
c330c0
ff3fc0
ff3fc0
000000
000000
ENDCHAR
COMMENT Conversion of file ../blue/normal/003_46.png
COMMENT Next glyph is color #0079e0
STARTCHAR 046
ENCODING 46
SWIDTH 1008
DWIDTH 18 0
BBX 18 18 0 0
BITMAP
ffffc0
ffffc0
c000c0
c000c0
30fcc0
30fcc0
c000c0
c000c0
30fcc0
30fcc0
c000c0
c000c0
30fcc0
30fcc0
c000c0
c000c0
ffffc0
ffffc0
ENDCHAR
COMMENT Conversion of file ../blue/normal/003_47.png
COMMENT Next glyph is color #0079e0
STARTCHAR 047
ENCODING 47
SWIDTH 1008
DWIDTH 18 0
BBX 18 18 0 0
BITMAP
3ff000
3ff000
303c00
303c00
303f00
303f00
300300
300300
300300
300300
300300
300300
300300
300300
300300
300300
3fff00
3fff00
ENDCHAR
COMMENT Conversion of file ../blue/normal/003_48.png
COMMENT Next glyph is color #0079e0
STARTCHAR 048
ENCODING 48
SWIDTH 1008
DWIDTH 18 0
BBX 18 18 0 0
BITMAP
3ff000
3ff000
303000
303000
333000
333000
333300
333300
333300
333300
333300
333300
33f300
33f300
300300
300300
3fff00
3fff00
ENDCHAR
COMMENT Conversion of file ../blue/normal/003_49.png
COMMENT Next glyph is color #0079e0
STARTCHAR 049
ENCODING 49
SWIDTH 1008
DWIDTH 18 0
BBX 18 18 0 0
BITMAP
0c0000
0c0000
030000
030000
00c000
00c000
003000
003000
000c00
000c00
003000
003000
00c000
00c000
030000
030000
0c0000
0c0000
ENDCHAR
COMMENT Conversion of file ../blue/normal/003_50.png
COMMENT Next glyph is color #0079e0
STARTCHAR 050
ENCODING 50
SWIDTH 1008
DWIDTH 18 0
BBX 18 18 0 0
BITMAP
000000
000000
000000
000000
c000c0
c000c0
300300
300300
0c0c00
0c0c00
033000
033000
00c000
00c000
000000
000000
000000
000000
ENDCHAR
COMMENT Conversion of file ../blue/normal/003_51.png
COMMENT Next glyph is color #0079e0
STARTCHAR 051
ENCODING 51
SWIDTH 1008
DWIDTH 18 0
BBX 18 18 0 0
BITMAP
000c00
000c00
003000
003000
00c000
00c000
030000
030000
0c0000
0c0000
030000
030000
00c000
00c000
003000
003000
000c00
000c00
ENDCHAR
COMMENT Conversion of file ../blue/normal/003_52.png
COMMENT Next glyph is color #0079e0
STARTCHAR 052
ENCODING 52
SWIDTH 1008
DWIDTH 18 0
BBX 18 18 0 0
BITMAP
000000
000000
000000
000000
00c000
00c000
033000
033000
0c0c00
0c0c00
300300
300300
c000c0
c000c0
000000
000000
000000
000000
ENDCHAR
COMMENT Conversion of file ../blue/normal/003_53.png
COMMENT Next glyph is color #0079e0
STARTCHAR 053
ENCODING 53
SWIDTH 1008
DWIDTH 18 0
BBX 18 18 0 0
BITMAP
000000
000000
003000
003000
000c00
000c00
000300
000300
ffffc0
ffffc0
000300
000300
000c00
000c00
003000
003000
000000
000000
ENDCHAR
COMMENT Conversion of file ../blue/normal/003_54.png
COMMENT Next glyph is color #0079e0
STARTCHAR 054
ENCODING 54
SWIDTH 1008
DWIDTH 18 0
BBX 18 18 0 0
BITMAP
00c000
00c000
00c000
00c000
00c000
00c000
00c000
00c000
00c000
00c000
30c300
30c300
0ccc00
0ccc00
03f000
03f000
00c000
00c000
ENDCHAR
COMMENT Conversion of file ../blue/normal/003_55.png
COMMENT Next glyph is color #0079e0
STARTCHAR 055
ENCODING 55
SWIDTH 1008
DWIDTH 18 0
BBX 18 18 0 0
BITMAP
000000
000000
030000
030000
0c0000
0c0000
300000
300000
ffffc0
ffffc0
300000
300000
0c0000
0c0000
030000
030000
000000
000000
ENDCHAR
COMMENT Conversion of file ../blue/normal/003_56.png
COMMENT Next glyph is color #0079e0
STARTCHAR 056
ENCODING 56
SWIDTH 1008
DWIDTH 18 0
BBX 18 18 0 0
BITMAP
00c000
00c000
03f000
03f000
0ccc00
0ccc00
30c300
30c300
00c000
00c000
00c000
00c000
00c000
00c000
00c000
00c000
00c000
00c000
ENDCHAR
COMMENT Conversion of file ../blue/normal/003_57.png
COMMENT Next glyph is color #0079e0
STARTCHAR 057
ENCODING 57
SWIDTH 1008
DWIDTH 18 0
BBX 18 18 0 0
BITMAP
0f0000
0f0000
0cc000
0cc000
0c3000
0c3000
0c0c00
0c0c00
0c0300
0c0300
0c0c00
0c0c00
0c3000
0c3000
0cc000
0cc000
0f0000
0f0000
ENDCHAR
COMMENT Conversion of file ../blue/normal/003_58.png
COMMENT Next glyph is color #0079e0
STARTCHAR 058
ENCODING 58
SWIDTH 1008
DWIDTH 18 0
BBX 18 18 0 0
BITMAP
ffffc0
ffffc0
c000c0
c000c0
c000c0
c000c0
c000c0
c000c0
c000c0
c000c0
c000c0
c000c0
c000c0
c000c0
c000c0
c000c0
ffffc0
ffffc0
ENDCHAR
COMMENT Conversion of file ../blue/normal/003_59.png
COMMENT Next glyph is color #0079e0
STARTCHAR 059
ENCODING 59
SWIDTH 1008
DWIDTH 18 0
BBX 18 18 0 0
BITMAP
0c3000
0c3000
0c3000
0c3000
0c3000
0c3000
0c3000
0c3000
0c3000
0c3000
0c3000
0c3000
0c3000
0c3000
0c3000
0c3000
0c3000
0c3000
ENDCHAR
COMMENT Conversion of file ../blue/normal/003_60.png
COMMENT Next glyph is color #0079e0
STARTCHAR 060
ENCODING 60
SWIDTH 1008
DWIDTH 18 0
BBX 18 18 0 0
BITMAP
30c000
30c000
303000
303000
300c00
300c00
300300
300300
3000c0
3000c0
300300
300300
300c00
300c00
303000
303000
30c000
30c000
ENDCHAR
COMMENT Conversion of file ../blue/normal/003_61.png
COMMENT Next glyph is color #0079e0
STARTCHAR 061
ENCODING 61
SWIDTH 1008
DWIDTH 18 0
BBX 18 18 0 0
BITMAP
0030c0
0030c0
00c0c0
00c0c0
0300c0
0300c0
0c00c0
0c00c0
3000c0
3000c0
0c00c0
0c00c0
0300c0
0300c0
00c0c0
00c0c0
0030c0
0030c0
ENDCHAR
COMMENT Conversion of file ../blue/normal/003_62.png
COMMENT Next glyph is color #0079e0
STARTCHAR 062
ENCODING 62
SWIDTH 1008
DWIDTH 18 0
BBX 18 18 0 0
BITMAP
30c000
30c000
0c3000
0c3000
030c00
030c00
00c300
00c300
0030c0
0030c0
00c300
00c300
030c00
030c00
0c3000
0c3000
30c000
30c000
ENDCHAR
COMMENT Conversion of file ../blue/normal/003_63.png
COMMENT Next glyph is color #0079e0
STARTCHAR 063
ENCODING 63
SWIDTH 1008
DWIDTH 18 0
BBX 18 18 0 0
BITMAP
0030c0
0030c0
00c300
00c300
030c00
030c00
0c3000
0c3000
30c000
30c000
0c3000
0c3000
030c00
030c00
00c300
00c300
0030c0
0030c0
ENDCHAR
COMMENT Conversion of file ../blue/normal/003_64.png
COMMENT Next glyph is color #0079e0
STARTCHAR 064
ENCODING 64
SWIDTH 1008
DWIDTH 18 0
BBX 18 18 0 0
BITMAP
03f000
03f000
0c0c00
0c0c00
300300
300300
c000c0
c000c0
c000c0
c000c0
c000c0
c000c0
300300
300300
0c0c00
0c0c00
03f000
03f000
ENDCHAR
COMMENT Conversion of file ../blue/normal/003_65.png
COMMENT Next glyph is color #0079e0
STARTCHAR 065
ENCODING 65
SWIDTH 1008
DWIDTH 18 0
BBX 18 18 0 0
BITMAP
000000
000000
000000
000000
000000
000000
03f000
03f000
033000
033000
03f000
03f000
000000
000000
000000
000000
000000
000000
ENDCHAR
COMMENT Conversion of file ../blue/normal/003_66.png
COMMENT Next glyph is color #0079e0
STARTCHAR 066
ENCODING 66
SWIDTH 1008
DWIDTH 18 0
BBX 18 18 0 0
BITMAP
00c000
00c000
03c300
03c300
0cc0c0
0cc0c0
f0ccc0
f0ccc0
c0ccc0
c0ccc0
f0ccc0
f0ccc0
0cc0c0
0cc0c0
03c300
03c300
00c000
00c000
ENDCHAR
COMMENT Conversion of file ../blue/normal/003_67.png
COMMENT Next glyph is color #0079e0
STARTCHAR 067
ENCODING 67
SWIDTH 1008
DWIDTH 18 0
BBX 18 18 0 0
BITMAP
000c00
000c00
003c00
003c00
00cc00
00cc00
0f0c00
0f0c00
0c0c00
0c0c00
0f0c00
0f0c00
00cc00
00cc00
003c00
003c00
000c00
000c00
ENDCHAR
COMMENT Conversion of file ../blue/normal/003_68.png
COMMENT Next glyph is color #0079e0
STARTCHAR 068
ENCODING 68
SWIDTH 1008
DWIDTH 18 0
BBX 18 18 0 0
BITMAP
00c000
00c000
03c000
03c000
0cc000
0cc000
f0c300
f0c300
c0cfc0
c0cfc0
f0c300
f0c300
0cc000
0cc000
03c000
03c000
00c000
00c000
ENDCHAR
COMMENT Conversion of file ../blue/normal/003_69.png
COMMENT Next glyph is color #0079e0
STARTCHAR 069
ENCODING 69
SWIDTH 1008
DWIDTH 18 0
BBX 18 18 0 0
BITMAP
00c000
00c000
03c000
03c000
0cc000
0cc000
f0c000
f0c000
c0cfc0
c0cfc0
f0c000
f0c000
0cc000
0cc000
03c000
03c000
00c000
00c000
ENDCHAR
COMMENT Conversion of file ../blue/normal/003_70.png
COMMENT Next glyph is color #0079e0
STARTCHAR 070
ENCODING 70
SWIDTH 1008
DWIDTH 18 0
BBX 18 18 0 0
BITMAP
0fff00
0fff00
300cc0
300cc0
c03000
c03000
c03000
c03000
300c00
300c00
0c0300
0c0300
0c0300
0c0300
300c00
300c00
fff000
fff000
ENDCHAR
COMMENT Conversion of file ../blue/normal/003_71.png
COMMENT Next glyph is color #0079e0
STARTCHAR 071
ENCODING 71
SWIDTH 1008
DWIDTH 18 0
BBX 18 18 0 0
BITMAP
3fffc0
3fffc0
3000c0
3000c0
3000c0
3000c0
3000c0
3000c0
ffc0c0
ffc0c0
c0c0c0
c0c0c0
c0c0c0
c0c0c0
c0ffc0
c0ffc0
ffc000
ffc000
ENDCHAR
COMMENT Conversion of file ../blue/normal/003_72.png
COMMENT Next glyph is color #0079e0
STARTCHAR 072
ENCODING 72
SWIDTH 1008
DWIDTH 18 0
BBX 18 18 0 0
BITMAP
03ffc0
03ffc0
0300c0
0300c0
0300c0
0300c0
fff0c0
fff0c0
c030c0
c030c0
c03fc0
c03fc0
c03000
c03000
c03000
c03000
fff000
fff000
ENDCHAR
COMMENT Conversion of file ../blue/normal/003_73.png
COMMENT Next glyph is color #0079e0
STARTCHAR 073
ENCODING 73
SWIDTH 1008
DWIDTH 18 0
BBX 18 18 0 0
BITMAP
ffffc0
ffffc0
c000c0
c000c0
c000c0
c000c0
c000c0
c000c0
ffc0c0
ffc0c0
c0c0c0
c0c0c0
c0c0c0
c0c0c0
c0c0c0
c0c0c0
ffffc0
ffffc0
ENDCHAR
COMMENT Conversion of file ../blue/normal/003_74.png
COMMENT Next glyph is color #0079e0
STARTCHAR 074
ENCODING 74
SWIDTH 1008
DWIDTH 18 0
BBX 18 18 0 0
BITMAP
000000
000000
000000
000000
000000
000000
000000
000000
000000
000000
000000
000000
000000
000000
000000
000000
ffffc0
ffffc0
ENDCHAR
COMMENT Conversion of file ../blue/normal/003_75.png
COMMENT Next glyph is color #0079e0
STARTCHAR 075
ENCODING 75
SWIDTH 1008
DWIDTH 18 0
BBX 18 18 0 0
BITMAP
c000c0
c000c0
300300
300300
0c0c00
0c0c00
033000
033000
00c000
00c000
033000
033000
0c0c00
0c0c00
300300
300300
c000c0
c000c0
ENDCHAR
ENDFONT